<?xml version="1.0" encoding="utf-8"?>
<!-- Generator: Adobe Illustrator 23.0.1, SVG Export Plug-In . SVG Version: 6.00 Build 0)  -->
<svg version="1.1" id="Layer_1" xmlns="http://www.w3.org/2000/svg" xmlns:xlink="http://www.w3.org/1999/xlink" x="0px" y="0px"
	 viewBox="0 0 210 75" style="enable-background:new 0 0 210 75;" xml:space="preserve">
<g>
	<g>
		<g>
			<path style="fill:#3B635B;" d="M37.949,49.123L17.074,28.248c-0.497-0.497-1.303-0.497-1.799,0l-6.023,6.023
				c-0.497,0.497-0.497,1.303,0,1.799l21.775,21.775l6.904,6.904c0.445,0.445,1.166,0.447,1.613,0.003l28.79-28.569
				c0.497-0.497,0.497-1.303,0-1.799l-6.023-6.023c-0.497-0.497-1.303-0.497-1.799,0L39.748,49.123
				C39.252,49.62,38.446,49.62,37.949,49.123z"/>
		</g>
		<path style="fill:#3B635B;" d="M40.667,38.227L54.49,24.405c1.067-1.067,1.067-2.797,0-3.864L40.667,6.718
			c-1.067-1.067-2.797-1.067-3.864,0L22.981,20.541c-1.067,1.067-1.067,2.797,0,3.864l13.822,13.822
			C37.87,39.294,39.6,39.294,40.667,38.227z"/>
	</g>
	<text transform="matrix(1 0 0 1 75.6787 19.2739)"><tspan x="0" y="0" style="font-family:'MuseoSans-100'; font-size:18px;">Feder</tspan><tspan x="45.575" y="0" style="font-family:'MuseoSans-100'; font-size:18px;">a</tspan><tspan x="54.755" y="0" style="font-family:'MuseoSans-100'; font-size:18px;">tie</tspan><tspan x="0" y="21.6" style="font-family:'MuseoSans-100'; font-size:18px;">Palli</tspan><tspan x="32.093" y="21.6" style="font-family:'MuseoSans-100'; font-size:18px;">a</tspan><tspan x="41.273" y="21.6" style="font-family:'MuseoSans-100'; font-size:18px;">tieve </tspan><tspan x="84.185" y="21.6" style="font-family:'MuseoSans-100'; font-size:18px;">z</tspan><tspan x="93.058" y="21.6" style="font-family:'MuseoSans-100'; font-size:18px;">o</tspan><tspan x="104.218" y="21.6" style="font-family:'MuseoSans-100'; font-size:18px;">r</tspan><tspan x="110.212" y="21.6" style="font-family:'MuseoSans-100'; font-size:18px;">g</tspan><tspan x="0" y="43.2" style="font-family:'MuseoSans-100'; font-size:18px;">Vlaande</tspan><tspan x="64.439" y="43.2" style="font-family:'MuseoSans-100'; font-size:18px;">r</tspan><tspan x="70.307" y="43.2" style="font-family:'MuseoSans-100'; font-size:18px;">en</tspan></text>
</g>
<path style="fill:#3B635B;" d="M192.819,58.673c0.139-0.098,0.312-0.27,0.298-0.457c-0.032-0.436-0.685-0.609-1.017-0.708
	c-0.645-0.192-1.309-0.25-1.978-0.27c-2.159-0.066-4.633,0.276-6.401,1.614c0.001-0.018,0-0.037-0.001-0.055
	c0.113-0.095,0.231-0.188,0.357-0.284c0.406-0.309,0.799-0.66,0.988-1.145c0.011-0.028-0.031-0.05-0.047-0.024
	c-0.34,0.56-0.833,0.913-1.338,1.299c-0.02-0.042-0.049-0.08-0.084-0.113c-0.002-0.012-0.009-0.024-0.021-0.034
	c-0.058-0.047-0.128-0.072-0.199-0.078c0.181-0.61,0.334-1.196,0.735-1.714c0.019-0.024-0.017-0.056-0.039-0.035
	c-0.385,0.35-0.573,0.842-0.716,1.332c-0.044,0.151-0.089,0.296-0.137,0.435c-0.018,0.005-0.035,0.011-0.052,0.019
	c0.617-2.129,0.053-4.562-0.781-6.555c-0.258-0.617-0.55-1.217-0.96-1.751c-0.211-0.275-0.606-0.823-1.025-0.697
	c-0.18,0.054-0.279,0.277-0.321,0.442c-0.136,0.542-0.162,1.109-0.315,1.646c-0.188,0.66-0.573,1.154-1.2,1.459
	c-0.36,0.175-0.74,0.355-1.001,0.672c-0.688,0.833-0.307,1.803,0.331,2.579c-0.461,0.118-0.911,0.261-1.323,0.516
	c-0.555,0.343-0.885,1.002-1.059,1.61c-0.194,0.677-0.317,1.381-0.436,2.074c-0.081,0.476-0.132,0.953-0.006,1.426
	c0.293,1.097,1.517,1.449,2.517,1.324c1.153-0.144,2.679-0.635,3.381-1.646c0.02,0.141,0.094,0.273,0.219,0.354c0,0,0,0,0,0
	c0.001,0.009,0.004,0.017,0.013,0.024c0.121,0.088,0.271,0.11,0.409,0.078c-0.694,1.017-0.607,2.618-0.329,3.746
	c0.241,0.979,1.006,1.996,2.136,1.878c0.487-0.051,0.914-0.269,1.33-0.515c0.605-0.358,1.219-0.725,1.782-1.148
	c0.506-0.38,1.003-0.924,1.125-1.565c0.091-0.476,0.064-0.948,0.009-1.42c0.952,0.319,1.994,0.328,2.527-0.612
	c0.202-0.357,0.235-0.776,0.27-1.175c0.061-0.695,0.384-1.23,0.934-1.642C191.841,59.22,192.361,58.994,192.819,58.673z"/>
</svg>
