<?xml version="1.0" encoding="utf-8"?>
<!-- Generator: Adobe Illustrator 23.0.1, SVG Export Plug-In . SVG Version: 6.00 Build 0)  -->
<svg version="1.1" id="Layer_1" xmlns="http://www.w3.org/2000/svg" xmlns:xlink="http://www.w3.org/1999/xlink" x="0px" y="0px"
	 viewBox="0 0 210 75" style="enable-background:new 0 0 210 75;" xml:space="preserve">
<g>
	<g>
		<g>
			<path style="fill:#3B635B;" d="M37.949,49.123L17.074,28.248c-0.497-0.497-1.303-0.497-1.799,0l-6.023,6.023
				c-0.497,0.497-0.497,1.303,0,1.799l21.775,21.775l6.904,6.904c0.445,0.445,1.166,0.447,1.613,0.003l28.79-28.569
				c0.497-0.497,0.497-1.303,0-1.799l-6.023-6.023c-0.497-0.497-1.303-0.497-1.799,0L39.748,49.123
				C39.252,49.62,38.446,49.62,37.949,49.123z"/>
		</g>
		<path style="fill:#3B635B;" d="M40.667,38.227L54.49,24.405c1.067-1.067,1.067-2.797,0-3.864L40.667,6.718
			c-1.067-1.067-2.797-1.067-3.864,0L22.981,20.541c-1.067,1.067-1.067,2.797,0,3.864l13.822,13.822
			C37.87,39.294,39.6,39.294,40.667,38.227z"/>
	</g>
	<g>
		<path d="M77.623,6.67h6.356v0.721h-5.582v5.257h4.826v0.72h-4.826v5.906h-0.774V6.67z"/>
		<path d="M90.152,10.055c2.449,0,3.673,1.927,3.673,4.105c0,0.198-0.036,0.486-0.036,0.486h-7.22c0,2.611,1.765,4.105,3.853,4.105
			c1.729,0,2.791-1.135,2.791-1.135l0.414,0.63c0,0-1.26,1.243-3.205,1.243c-2.539,0-4.646-1.837-4.646-4.7
			C85.777,11.748,87.848,10.055,90.152,10.055z M93.033,13.944c-0.09-2.197-1.404-3.187-2.899-3.187
			c-1.656,0-3.187,1.081-3.511,3.187H93.033z"/>
		<path d="M99.8,10.055c2.269,0,3.115,2.035,3.115,2.035h0.036c0,0-0.072-0.324-0.072-0.738V6.67h0.756v12.604h-0.756V18.14
			c0-0.414,0.072-0.684,0.072-0.684h-0.036c0,0-0.774,2.035-3.259,2.035c-2.413,0-3.889-1.927-3.889-4.718
			C95.767,11.91,97.441,10.055,99.8,10.055z M99.692,18.752c1.656,0,3.205-1.17,3.205-3.998c0-1.999-1.026-3.961-3.133-3.961
			c-1.764,0-3.205,1.458-3.205,3.979C96.559,17.203,97.855,18.752,99.692,18.752z"/>
		<path d="M110.546,10.055c2.449,0,3.673,1.927,3.673,4.105c0,0.198-0.036,0.486-0.036,0.486h-7.22c0,2.611,1.765,4.105,3.853,4.105
			c1.729,0,2.791-1.135,2.791-1.135l0.414,0.63c0,0-1.26,1.243-3.205,1.243c-2.539,0-4.646-1.837-4.646-4.7
			C106.17,11.748,108.241,10.055,110.546,10.055z M113.427,13.944c-0.09-2.197-1.404-3.187-2.899-3.187
			c-1.656,0-3.187,1.081-3.511,3.187H113.427z"/>
		<path d="M116.754,10.271h0.756v1.71c0,0.414-0.072,0.738-0.072,0.738h0.036c0.45-1.386,1.458-2.521,2.881-2.521
			c0.27,0,0.522,0.054,0.522,0.054v0.756c0,0-0.216-0.036-0.414-0.036c-1.404,0-2.287,1.188-2.683,2.521
			c-0.198,0.63-0.27,1.296-0.27,1.891v3.889h-0.756V10.271z"/>
		<path d="M127.682,13.782h0.594v-0.306c0-1.999-1.026-2.683-2.467-2.683c-1.566,0-2.575,0.864-2.575,0.864l-0.432-0.612
			c0,0,1.081-0.99,3.043-0.99c2.071,0,3.187,1.152,3.187,3.403v5.816h-0.756v-1.188c0-0.486,0.072-0.81,0.072-0.81h-0.036
			c0.018,0-0.81,2.215-3.151,2.215c-1.458,0-3.061-0.811-3.061-2.611C122.1,13.818,126.079,13.782,127.682,13.782z M125.197,18.788
			c1.962,0,3.079-2.035,3.079-3.817v-0.486H127.7c-1.53,0-4.807,0-4.807,2.341C122.893,17.779,123.667,18.788,125.197,18.788z"/>
		<path d="M132.307,11.009h-1.188v-0.684h1.188V7.769h0.756v2.557h2.358v0.684h-2.358v4.952c0,2.377,1.422,2.683,2.143,2.683
			c0.252,0,0.414-0.036,0.414-0.036v0.702c0,0-0.18,0.036-0.45,0.036c-0.936,0-2.863-0.342-2.863-3.331V11.009z"/>
		<path d="M137.599,6.67h0.9v1.314h-0.9V6.67z M137.67,10.271h0.756v9.002h-0.756V10.271z"/>
		<path d="M145.339,10.055c2.449,0,3.673,1.927,3.673,4.105c0,0.198-0.036,0.486-0.036,0.486h-7.22c0,2.611,1.765,4.105,3.853,4.105
			c1.729,0,2.791-1.135,2.791-1.135l0.414,0.63c0,0-1.26,1.243-3.205,1.243c-2.539,0-4.646-1.837-4.646-4.7
			C140.964,11.748,143.035,10.055,145.339,10.055z M148.22,13.944c-0.09-2.197-1.404-3.187-2.899-3.187
			c-1.656,0-3.187,1.081-3.511,3.187H148.22z"/>
		<path d="M77.623,28.271h4.142c2.196,0,3.835,1.386,3.835,3.673s-1.639,3.709-3.835,3.709h-3.367v5.222h-0.774V28.271z
			 M81.729,34.932c1.836,0,3.061-1.098,3.061-2.989s-1.225-2.953-3.061-2.953h-3.331v5.942H81.729z"/>
		<path d="M92.762,35.382h0.594v-0.306c0-1.999-1.026-2.683-2.467-2.683c-1.566,0-2.575,0.864-2.575,0.864l-0.432-0.612
			c0,0,1.081-0.99,3.043-0.99c2.071,0,3.187,1.152,3.187,3.403v5.816h-0.756v-1.188c0-0.486,0.072-0.81,0.072-0.81h-0.036
			c0.018,0-0.81,2.214-3.151,2.214c-1.458,0-3.061-0.81-3.061-2.61C87.181,35.418,91.16,35.382,92.762,35.382z M90.278,40.388
			c1.962,0,3.079-2.034,3.079-3.817v-0.486H92.78c-1.53,0-4.807,0-4.807,2.341C87.973,39.379,88.747,40.388,90.278,40.388z"/>
		<path d="M97.063,28.271h0.756v10.551c0,1.261,0.648,1.404,1.063,1.404c0.144,0,0.27-0.018,0.27-0.018v0.702
			c0,0-0.162,0.036-0.324,0.036c-0.522,0-1.764-0.198-1.764-1.891V28.271z"/>
		<path d="M101.203,28.271h0.756v10.551c0,1.261,0.648,1.404,1.063,1.404c0.144,0,0.27-0.018,0.27-0.018v0.702
			c0,0-0.162,0.036-0.324,0.036c-0.522,0-1.764-0.198-1.764-1.891V28.271z"/>
		<path d="M105.36,28.271h0.9v1.314h-0.9V28.271z M105.433,31.871h0.756v9.003h-0.756V31.871z"/>
		<path d="M114.2,35.382h0.594v-0.306c0-1.999-1.026-2.683-2.467-2.683c-1.566,0-2.575,0.864-2.575,0.864l-0.432-0.612
			c0,0,1.081-0.99,3.043-0.99c2.071,0,3.187,1.152,3.187,3.403v5.816h-0.756v-1.188c0-0.486,0.072-0.81,0.072-0.81h-0.036
			c0.018,0-0.81,2.214-3.151,2.214c-1.458,0-3.061-0.81-3.061-2.61C108.618,35.418,112.598,35.382,114.2,35.382z M111.715,40.388
			c1.962,0,3.079-2.034,3.079-3.817v-0.486h-0.576c-1.53,0-4.807,0-4.807,2.341C109.411,39.379,110.185,40.388,111.715,40.388z"/>
		<path d="M118.824,32.609h-1.188v-0.684h1.188v-2.557h0.756v2.557h2.358v0.684h-2.358v4.952c0,2.376,1.422,2.683,2.143,2.683
			c0.252,0,0.414-0.036,0.414-0.036v0.702c0,0-0.18,0.036-0.45,0.036c-0.936,0-2.863-0.342-2.863-3.331V32.609z"/>
		<path d="M124.116,28.271h0.9v1.314h-0.9V28.271z M124.188,31.871h0.756v9.003h-0.756V31.871z"/>
		<path d="M131.857,31.655c2.449,0,3.673,1.927,3.673,4.105c0,0.198-0.036,0.486-0.036,0.486h-7.22c0,2.611,1.765,4.105,3.853,4.105
			c1.729,0,2.791-1.134,2.791-1.134l0.414,0.63c0,0-1.26,1.242-3.205,1.242c-2.539,0-4.646-1.836-4.646-4.699
			C127.481,33.348,129.552,31.655,131.857,31.655z M134.738,35.544c-0.09-2.197-1.404-3.187-2.899-3.187
			c-1.656,0-3.187,1.081-3.511,3.187H134.738z"/>
		<path d="M136.806,31.871h0.81l2.773,7.059c0.162,0.432,0.306,0.972,0.306,0.972h0.036c0,0,0.145-0.541,0.306-0.972l2.773-7.059
			h0.792l-3.529,9.003h-0.72L136.806,31.871z"/>
		<path d="M150.253,31.655c2.449,0,3.673,1.927,3.673,4.105c0,0.198-0.036,0.486-0.036,0.486h-7.22c0,2.611,1.765,4.105,3.853,4.105
			c1.729,0,2.791-1.134,2.791-1.134l0.414,0.63c0,0-1.26,1.242-3.205,1.242c-2.539,0-4.646-1.836-4.646-4.699
			C145.877,33.348,147.948,31.655,150.253,31.655z M153.134,35.544c-0.09-2.197-1.404-3.187-2.899-3.187
			c-1.656,0-3.187,1.081-3.511,3.187H153.134z"/>
		<path d="M160.655,40.262l5.456-6.86c0.324-0.414,0.702-0.828,0.702-0.828v-0.036c0,0-0.324,0.036-0.918,0.036h-5.005v-0.703h6.95
			v0.612l-5.474,6.86c-0.324,0.414-0.72,0.828-0.72,0.828v0.036c0,0,0.342-0.036,0.936-0.036h5.456v0.702h-7.382V40.262z"/>
		<path d="M174.318,31.655c2.575,0,4.664,2.035,4.664,4.664c0,2.683-2.089,4.771-4.664,4.771s-4.663-2.088-4.663-4.771
			C169.655,33.69,171.744,31.655,174.318,31.655z M174.318,40.352c2.143,0,3.871-1.747,3.871-4.033c0-2.233-1.729-3.925-3.871-3.925
			s-3.871,1.692-3.871,3.925C170.447,38.605,172.176,40.352,174.318,40.352z"/>
		<path d="M181.481,31.871h0.756v1.711c0,0.414-0.072,0.738-0.072,0.738h0.036c0.45-1.387,1.458-2.521,2.881-2.521
			c0.27,0,0.522,0.054,0.522,0.054v0.756c0,0-0.216-0.036-0.414-0.036c-1.404,0-2.287,1.188-2.683,2.521
			c-0.198,0.63-0.27,1.296-0.27,1.891v3.889h-0.756V31.871z"/>
		<path d="M190.446,43.917c1.927,0,3.421-0.918,3.421-3.097v-1.044c0-0.415,0.072-0.738,0.072-0.738h-0.036
			c-0.54,1.098-1.53,1.836-3.025,1.836c-2.34,0-3.997-1.836-3.997-4.646c0-2.809,1.531-4.573,3.871-4.573
			c2.557,0,3.133,1.765,3.133,1.765h0.036c0,0-0.054-0.126-0.054-0.342v-1.207h0.756v8.949c0,2.755-1.98,3.835-4.123,3.835
			c-0.99,0-1.945-0.252-2.827-0.702l0.36-0.667C188.034,43.287,189.15,43.917,190.446,43.917z M193.886,36.229
			c0-2.899-1.369-3.835-3.133-3.835c-1.926,0-3.079,1.404-3.079,3.835s1.332,3.907,3.259,3.907
			C192.517,40.136,193.886,39.146,193.886,36.229z"/>
		<path d="M75.985,49.87h0.828l3.799,10.191c0.216,0.594,0.486,1.512,0.486,1.512h0.036c0,0,0.27-0.918,0.486-1.512l3.817-10.191
			h0.828l-4.717,12.604h-0.846L75.985,49.87z"/>
		<path d="M88.063,49.87h0.756v10.551c0,1.26,0.648,1.405,1.063,1.405c0.144,0,0.27-0.018,0.27-0.018v0.702
			c0,0-0.162,0.036-0.324,0.036c-0.522,0-1.764-0.198-1.764-1.89V49.87z"/>
		<path d="M97.136,56.982h0.594v-0.306c0-1.999-1.026-2.683-2.467-2.683c-1.566,0-2.575,0.864-2.575,0.864l-0.432-0.612
			c0,0,1.081-0.99,3.043-0.99c2.071,0,3.187,1.152,3.187,3.403v5.816H97.73v-1.188c0-0.486,0.072-0.81,0.072-0.81h-0.036
			c0.018,0-0.81,2.215-3.151,2.215c-1.458,0-3.061-0.811-3.061-2.611C91.555,57.019,95.534,56.982,97.136,56.982z M94.652,61.988
			c1.962,0,3.079-2.035,3.079-3.817v-0.486h-0.576c-1.53,0-4.807,0-4.807,2.341C92.347,60.979,93.121,61.988,94.652,61.988z"/>
		<path d="M106.37,56.982h0.594v-0.306c0-1.999-1.026-2.683-2.467-2.683c-1.566,0-2.575,0.864-2.575,0.864l-0.432-0.612
			c0,0,1.081-0.99,3.043-0.99c2.071,0,3.187,1.152,3.187,3.403v5.816h-0.756v-1.188c0-0.486,0.072-0.81,0.072-0.81H107
			c0.018,0-0.81,2.215-3.151,2.215c-1.458,0-3.061-0.811-3.061-2.611C100.789,57.019,104.768,56.982,106.37,56.982z M103.886,61.988
			c1.962,0,3.079-2.035,3.079-3.817v-0.486h-0.576c-1.53,0-4.807,0-4.807,2.341C101.581,60.979,102.355,61.988,103.886,61.988z"/>
		<path d="M110.76,53.472h0.756v1.584c0,0.415-0.072,0.738-0.072,0.738h0.036c0.306-0.846,1.566-2.539,3.817-2.539
			c2.34,0,2.971,1.386,2.971,3.511v5.708h-0.756v-5.438c0-1.566-0.198-3.043-2.214-3.043c-1.693,0-3.187,1.188-3.637,2.863
			c-0.108,0.378-0.144,0.792-0.144,1.225v4.393h-0.756V53.472z"/>
		<path d="M124.748,53.255c2.269,0,3.115,2.035,3.115,2.035h0.036c0,0-0.072-0.324-0.072-0.738V49.87h0.756v12.604h-0.756V61.34
			c0-0.414,0.072-0.684,0.072-0.684h-0.036c0,0-0.774,2.035-3.259,2.035c-2.413,0-3.889-1.927-3.889-4.718
			C120.714,55.11,122.389,53.255,124.748,53.255z M124.64,61.952c1.656,0,3.205-1.17,3.205-3.998c0-1.999-1.026-3.961-3.133-3.961
			c-1.764,0-3.205,1.458-3.205,3.979C121.507,60.403,122.803,61.952,124.64,61.952z"/>
		<path d="M135.493,53.255c2.449,0,3.673,1.927,3.673,4.105c0,0.198-0.036,0.486-0.036,0.486h-7.22c0,2.611,1.765,4.105,3.853,4.105
			c1.729,0,2.791-1.135,2.791-1.135l0.414,0.63c0,0-1.26,1.243-3.205,1.243c-2.539,0-4.646-1.837-4.646-4.7
			C131.118,54.948,133.188,53.255,135.493,53.255z M138.374,57.145c-0.09-2.197-1.404-3.187-2.899-3.187
			c-1.656,0-3.187,1.081-3.511,3.187H138.374z"/>
		<path d="M141.702,53.472h0.756v1.71c0,0.414-0.072,0.738-0.072,0.738h0.036c0.45-1.386,1.458-2.521,2.881-2.521
			c0.27,0,0.522,0.054,0.522,0.054v0.756c0,0-0.216-0.036-0.414-0.036c-1.404,0-2.287,1.188-2.683,2.521
			c-0.198,0.63-0.27,1.296-0.27,1.891v3.889h-0.756V53.472z"/>
		<path d="M151.315,53.255c2.449,0,3.673,1.927,3.673,4.105c0,0.198-0.036,0.486-0.036,0.486h-7.22c0,2.611,1.765,4.105,3.853,4.105
			c1.729,0,2.791-1.135,2.791-1.135l0.414,0.63c0,0-1.26,1.243-3.205,1.243c-2.539,0-4.646-1.837-4.646-4.7
			C146.94,54.948,149.011,53.255,151.315,53.255z M154.196,57.145c-0.09-2.197-1.404-3.187-2.899-3.187
			c-1.656,0-3.187,1.081-3.511,3.187H154.196z"/>
		<path d="M157.524,53.472h0.756v1.584c0,0.415-0.072,0.738-0.072,0.738h0.036c0.306-0.846,1.566-2.539,3.817-2.539
			c2.34,0,2.971,1.386,2.971,3.511v5.708h-0.756v-5.438c0-1.566-0.198-3.043-2.214-3.043c-1.693,0-3.187,1.188-3.637,2.863
			c-0.108,0.378-0.144,0.792-0.144,1.225v4.393h-0.756V53.472z"/>
	</g>
</g>
<path style="fill:#3B635B;" d="M192.819,58.673c0.139-0.098,0.312-0.27,0.298-0.457c-0.032-0.436-0.685-0.609-1.017-0.708
	c-0.645-0.192-1.309-0.25-1.978-0.27c-2.159-0.066-4.633,0.276-6.401,1.614c0.001-0.018,0-0.037-0.001-0.055
	c0.113-0.095,0.231-0.188,0.357-0.284c0.406-0.309,0.799-0.66,0.988-1.145c0.011-0.028-0.031-0.05-0.047-0.024
	c-0.34,0.56-0.833,0.913-1.338,1.299c-0.02-0.042-0.049-0.08-0.084-0.113c-0.002-0.012-0.009-0.024-0.021-0.034
	c-0.058-0.047-0.128-0.072-0.199-0.078c0.181-0.61,0.334-1.196,0.735-1.714c0.019-0.024-0.017-0.056-0.039-0.035
	c-0.385,0.35-0.573,0.842-0.716,1.332c-0.044,0.151-0.089,0.296-0.137,0.435c-0.018,0.005-0.035,0.011-0.052,0.019
	c0.617-2.129,0.053-4.562-0.781-6.555c-0.258-0.617-0.55-1.217-0.96-1.751c-0.211-0.275-0.606-0.823-1.025-0.697
	c-0.18,0.054-0.279,0.277-0.321,0.442c-0.136,0.542-0.162,1.109-0.315,1.646c-0.188,0.66-0.573,1.154-1.2,1.459
	c-0.36,0.175-0.74,0.355-1.001,0.672c-0.688,0.833-0.307,1.803,0.331,2.579c-0.461,0.118-0.911,0.261-1.323,0.516
	c-0.555,0.343-0.885,1.002-1.059,1.61c-0.194,0.677-0.317,1.381-0.436,2.074c-0.081,0.476-0.132,0.953-0.006,1.426
	c0.293,1.097,1.517,1.449,2.517,1.324c1.153-0.144,2.679-0.635,3.381-1.646c0.02,0.141,0.094,0.273,0.219,0.354c0,0,0,0,0,0
	c0.001,0.009,0.004,0.017,0.013,0.024c0.121,0.088,0.271,0.11,0.409,0.078c-0.694,1.017-0.607,2.618-0.329,3.746
	c0.241,0.979,1.006,1.996,2.136,1.878c0.487-0.051,0.914-0.269,1.33-0.515c0.605-0.358,1.219-0.725,1.782-1.148
	c0.506-0.38,1.003-0.924,1.125-1.565c0.091-0.476,0.064-0.948,0.009-1.42c0.952,0.319,1.994,0.328,2.527-0.612
	c0.202-0.357,0.235-0.776,0.27-1.175c0.061-0.695,0.384-1.23,0.934-1.642C191.841,59.22,192.361,58.994,192.819,58.673z"/>
</svg>
