<?xml version="1.0" encoding="utf-8"?>
<!-- Generator: Adobe Illustrator 23.0.1, SVG Export Plug-In . SVG Version: 6.00 Build 0)  -->
<svg version="1.1" id="Layer_1" xmlns="http://www.w3.org/2000/svg" xmlns:xlink="http://www.w3.org/1999/xlink" x="0px" y="0px"
	 viewBox="0 0 41 39" style="enable-background:new 0 0 41 39;" xml:space="preserve">
<path style="fill:#3B635B;" d="M34.551,8.253c0.108-0.29,0.188-0.725-0.026-0.992c-0.497-0.619-1.652-0.205-2.251-0.011
	c-1.162,0.377-2.215,0.976-3.237,1.635c-3.297,2.127-6.643,5.19-7.908,9.014c-0.018-0.028-0.037-0.055-0.059-0.081
	c0.071-0.258,0.152-0.52,0.241-0.792c0.289-0.88,0.514-1.81,0.297-2.73c-0.012-0.053-0.098-0.042-0.095,0.013
	c0.069,1.188-0.305,2.224-0.661,3.323c-0.074-0.042-0.156-0.07-0.241-0.082c-0.015-0.016-0.037-0.026-0.066-0.029
	c-0.136-0.011-0.265,0.024-0.378,0.089c-0.359-1.098-0.734-2.134-0.668-3.322c0.003-0.055-0.083-0.066-0.095-0.013
	c-0.215,0.921,0.012,1.85,0.302,2.73c0.09,0.272,0.171,0.534,0.243,0.792c-0.021,0.026-0.04,0.053-0.058,0.081
	c-1.273-3.821-4.625-6.877-7.926-8.998c-1.023-0.657-2.077-1.254-3.24-1.629C8.126,7.059,6.97,6.647,6.474,7.267
	C6.26,7.534,6.342,7.969,6.45,8.259c0.355,0.951,0.901,1.824,1.227,2.787c0.399,1.181,0.334,2.316-0.29,3.419
	c-0.358,0.633-0.74,1.295-0.805,2.037c-0.17,1.955,1.401,3.014,3.154,3.515c-0.568,0.651-1.093,1.33-1.447,2.136
	c-0.476,1.086-0.291,2.41,0.077,3.5c0.408,1.212,0.95,2.392,1.488,3.551c0.369,0.797,0.786,1.562,1.462,2.139
	c1.57,1.339,3.763,0.603,5.129-0.616c1.575-1.404,3.352-3.712,3.358-5.948c0.175,0.19,0.421,0.311,0.693,0.304c0,0,0,0,0,0
	c0.01,0.013,0.024,0.022,0.044,0.023c0.272,0.007,0.518-0.115,0.692-0.305c0.01,2.237,1.792,4.54,3.37,5.942
	c1.369,1.216,3.563,1.948,5.131,0.605c0.675-0.578,1.09-1.344,1.458-2.142c0.535-1.16,1.075-2.342,1.481-3.554
	c0.365-1.091,0.548-2.416,0.069-3.501c-0.355-0.806-0.882-1.483-1.451-2.133c1.753-0.504,3.321-1.566,3.147-3.521
	c-0.066-0.742-0.449-1.403-0.809-2.035c-0.626-1.102-0.694-2.236-0.297-3.418C33.653,10.079,34.198,9.204,34.551,8.253z"/>
</svg>
